<svg width="20" height="20" viewBox="0 0 20 20" fill="none" xmlns="http://www.w3.org/2000/svg">
<path d="M18.3895 11.2943C19.2416 11.2274 19.9298 11.7966 19.9953 12.6672C20.0608 13.5712 19.4382 14.3078 18.5861 14.3748C17.7668 14.4418 17.0458 13.8056 16.9803 12.9685C16.9148 12.0645 17.5047 11.3948 18.3895 11.2943Z" fill="currentColor"/>
<path d="M8.03369 18.4263C8.03369 17.5557 8.68913 16.8861 9.47565 16.8861C10.2622 16.8861 11.0159 17.6227 11.0159 18.4598C11.0159 19.2634 10.3605 19.9665 9.60674 20C8.65635 20 8.03369 19.3973 8.03369 18.4263Z" fill="currentColor"/>
<path d="M10.3605 8.64916C10.2294 8.71613 10.1638 8.61568 10.1311 8.51523C8.9185 6.20488 9.27899 3.29183 11.4092 1.5507C11.9663 1.08194 13.015 0.981487 13.4738 1.45025C13.6704 1.61767 13.7032 1.81857 13.7359 2.05295C13.8015 2.5552 13.8998 3.05745 14.2275 3.45925C14.588 3.89453 15.0468 4.06195 15.5712 4.02847C16.03 4.02847 16.4888 3.9615 16.7837 4.49723C16.9476 4.79858 16.882 5.9705 16.6199 6.20488C16.4888 6.30533 16.3905 6.23837 16.2921 6.20488C15.5384 5.90353 14.7519 5.90353 13.9654 6.03747C13.7032 6.07095 13.5721 6.00398 13.5721 5.70263C13.5393 5.20038 13.441 4.73162 13.1788 4.29633C12.6873 3.39228 11.7696 3.3588 11.1798 4.19588C10.6882 4.86555 10.5571 5.66915 10.426 6.47275C10.2949 7.1759 10.3277 7.91253 10.3605 8.64916Z" fill="currentColor"/>
<path d="M11.1796 9.1514C11.1141 9.05095 11.1468 8.9505 11.2452 8.88354C13.1131 7.14241 15.8987 6.80757 18.0617 8.51522C18.6188 8.98399 18.9793 9.955 18.6843 10.5242C18.5533 10.7586 18.3894 10.8591 18.1928 10.926C17.734 11.1269 17.3079 11.3278 17.013 11.7631C16.718 12.1984 16.6525 12.7006 16.7836 13.2364C16.8819 13.6716 17.0458 14.1404 16.6197 14.5422C16.3903 14.7766 15.2761 14.9775 14.9811 14.7766C14.85 14.6761 14.8828 14.5757 14.9156 14.4418C15.0139 13.6047 14.8173 12.8346 14.5223 12.0979C14.424 11.8301 14.4568 11.6961 14.719 11.6292C15.1778 11.4952 15.6038 11.2609 15.9315 10.926C16.6525 10.2229 16.4886 9.31882 15.5382 8.91702C14.7845 8.58219 13.998 8.64915 13.2442 8.71612C12.5232 8.7496 11.835 8.9505 11.1796 9.1514Z" fill="currentColor"/>
<path d="M10.7535 10.022C10.8518 9.92153 10.9174 9.95501 11.0157 10.022C13.1786 11.3613 14.2929 14.0065 13.3097 16.5847C13.0475 17.2544 12.1955 17.924 11.5728 17.7566C11.3106 17.6897 11.1796 17.5557 11.0485 17.3883C10.7535 16.9865 10.4258 16.6182 9.93423 16.4508C9.40988 16.2834 8.95108 16.3838 8.49228 16.6517C8.09902 16.8861 7.70575 17.1874 7.21418 16.8861C6.91923 16.7186 6.42766 15.6807 6.52597 15.3458C6.59151 15.2119 6.7226 15.2119 6.85369 15.2119C7.67298 15.078 8.32842 14.6762 8.95108 14.1404C9.14771 13.973 9.31157 13.973 9.47543 14.2074C9.7376 14.6092 10.0653 14.944 10.4914 15.1784C11.3434 15.6807 12.1627 15.2454 12.261 14.2409C12.3593 13.4038 12.0644 12.6672 11.8022 11.9305C11.5073 11.2609 11.1468 10.6247 10.7535 10.022Z" fill="currentColor"/>
<path d="M9.70487 10.2229C9.57378 10.8926 9.27884 11.5287 8.88557 12.0979C7.70579 13.906 6.00166 14.6427 3.90427 14.4418C3.15052 14.3748 2.52785 13.7386 2.46231 13.1024C2.42954 12.8346 2.49508 12.6337 2.65894 12.4328C2.88834 12.1314 3.08497 11.8636 3.18329 11.4953C3.37992 10.7586 3.11775 10.1559 2.5934 9.62018C1.87242 8.88355 1.97074 8.21389 2.8228 7.67815C2.92112 7.61119 3.0522 7.54422 3.18329 7.47725C3.37992 7.3768 3.54378 7.3768 3.60932 7.61119C3.90427 8.3813 4.49416 8.95052 5.1496 9.41928C5.379 9.62018 5.379 9.75412 5.18237 9.9885C4.78911 10.4238 4.5597 10.9595 4.52693 11.5622C4.46139 12.2988 4.88742 12.7676 5.6084 12.7676C6.0672 12.7676 6.49324 12.6002 6.8865 12.3993C7.90242 11.8636 8.68894 11.0935 9.44269 10.2899C9.54101 10.2564 9.57378 10.1894 9.70487 10.2229Z" fill="currentColor"/>
<path d="M4.33037 3.19139C4.39591 3.19139 4.55977 3.22487 4.72363 3.25836C5.93618 3.49274 6.68993 3.05746 7.08319 1.88554C7.34537 1.11543 7.90249 0.881043 8.62347 1.28284C8.65624 1.28284 8.65624 1.31633 8.68901 1.31633C9.44276 1.75161 9.44276 1.81858 8.98396 2.48824C8.5907 3.02397 8.39406 3.62667 8.29575 4.26286C8.23021 4.63117 8.09912 4.69814 7.7714 4.56421C7.24705 4.36331 6.68993 4.36331 6.13281 4.56421C5.51015 4.76511 5.24798 5.33432 5.44461 5.9705C5.70678 6.80759 6.42776 7.1759 7.05042 7.61119C7.67309 8.04647 8.39406 8.28085 9.08227 8.5822C9.18059 8.61569 9.34445 8.61569 9.31167 8.7831C9.2789 8.88355 9.14781 8.88355 9.01673 8.88355C7.542 8.95052 6.13281 8.71614 4.9858 7.71164C3.90434 6.80759 3.11781 5.70264 3.2489 4.16241C3.34721 3.66016 3.7077 3.29184 4.33037 3.19139Z" fill="currentColor"/>
<path d="M1.64312 12.6002C0.856595 12.7006 0.0700727 12.031 0.00452915 11.1939C-0.0610144 10.3903 0.594421 9.58669 1.34817 9.51973C2.20024 9.41928 2.98676 10.022 3.0523 10.8256C3.08507 11.5957 2.5935 12.5332 1.64312 12.6002Z" fill="currentColor"/>
<path d="M15.4073 0.680132C16.2266 0.613165 17.0131 1.28283 17.0786 2.11991C17.1442 2.92351 16.4887 3.69363 15.7022 3.7606C14.8501 3.82756 14.0964 3.19138 14.0308 2.3543C13.9653 1.51721 14.5552 0.747098 15.4073 0.680132Z" fill="currentColor"/>
<path d="M6.85385 1.31632C6.95217 2.18689 6.36228 2.92352 5.47744 3.05745C4.72369 3.1579 3.93717 2.52172 3.83885 1.78509C3.74054 0.814072 4.26489 0.110923 5.14972 0.0104728C5.96902 -0.0899771 6.75554 0.546206 6.85385 1.31632Z" fill="currentColor"/>
</svg>
