<svg width="20" height="20" viewBox="0 0 20 20" fill="none" xmlns="http://www.w3.org/2000/svg">
<path d="M7.26577 12.1284V10.0213L5.74852 11.5402C5.91198 11.654 6.06604 11.7474 6.21097 11.8235C6.3559 11.8996 6.49156 11.9585 6.61795 12.0032C6.74435 12.0481 6.86161 12.0787 6.96946 12.0986C7.07745 12.1183 7.17618 12.1272 7.26577 12.1284ZM15.0227 11.9532C15.0254 11.9555 15.0402 11.968 15.0675 11.9853C15.0949 12.0028 15.1349 12.0252 15.1881 12.0474C15.2411 12.0694 15.3075 12.0913 15.3875 12.1076C15.4676 12.1239 15.5613 12.1347 15.6693 12.1347C15.7595 12.1347 15.8589 12.1268 15.9678 12.1078C16.0769 12.0887 16.1952 12.0585 16.3231 12.0139C16.4511 11.9692 16.5885 11.9101 16.7354 11.8334C16.8824 11.7566 17.0388 11.662 17.2049 11.5465L16.0535 10.4186L12.2375 6.58845L10.5631 8.26325L8.30444 5.93406L2.63571 11.5387C2.80159 11.6542 2.9578 11.7488 3.10461 11.8256C3.25142 11.9023 3.38869 11.9614 3.51656 12.0061C3.6443 12.0507 3.76263 12.081 3.87157 12.0999C3.98036 12.119 4.07976 12.1269 4.16975 12.1269C4.27774 12.1269 4.3715 12.1161 4.45141 12.0998C4.53147 12.0835 4.59769 12.0616 4.65088 12.0395C4.70406 12.0174 4.74396 11.995 4.77136 11.9775C4.79876 11.9601 4.81353 11.9476 4.81622 11.9453L7.37524 9.38628L8.29034 8.50879L10.8244 11.0428L11.7097 11.9532C11.7123 11.9555 11.7271 11.968 11.7545 11.9853C11.7819 12.0028 11.8218 12.0252 11.875 12.0474C11.9282 12.0694 11.9945 12.0913 12.0745 12.1076C12.1545 12.1239 12.2484 12.1347 12.3564 12.1347C12.4464 12.1347 12.5459 12.1268 12.6549 12.1078C12.7638 12.0887 12.8822 12.0585 13.0101 12.0139C13.138 11.9692 13.2754 11.9101 13.4223 11.8334C13.5693 11.7566 13.7258 11.662 13.8918 11.5465L11.8583 9.55525L12.2369 9.17675L13.9965 10.9364L15.0227 11.9532ZM15.0008 1.34L20 10.0011L15.0008 18.6621H4.99916L0 10.0011L4.99916 1.34H15.0008Z" fill="currentColor"/>
</svg>
