<svg width="20" height="20" viewBox="0 0 20 20" fill="none" xmlns="http://www.w3.org/2000/svg">
<g clip-path="url(#clip0_8418_295)">
<path fill-rule="evenodd" clip-rule="evenodd" d="M7.70119 0.000834335C7.68911 0.0129213 7.67924 0.162068 7.67924 0.332283C7.67924 1.05129 7.8238 1.80116 8.06162 2.31591C8.28554 2.80057 8.54994 3.14011 9.2885 3.89161C9.97956 4.59476 10.1288 4.77602 10.2443 5.0524L10.3006 5.1872L10.1238 5.03809C10.0184 4.94927 9.73442 4.79299 9.42098 4.65138C9.13166 4.52065 8.81685 4.36873 8.72141 4.31373C8.46123 4.16384 7.83914 3.51525 7.58103 3.12481C7.37972 2.82027 7.35315 2.79329 7.33714 2.87712C7.31097 3.01407 7.37459 3.5816 7.44256 3.81768C7.52909 4.11797 7.76292 4.54523 7.98936 4.81668C8.29526 5.18339 8.6582 5.47559 9.58502 6.10111C10.3018 6.58496 10.6613 6.95637 10.7829 7.33875C10.8524 7.55739 10.8152 7.56227 10.6428 7.35723C10.3685 7.03111 10.0785 6.83376 9.27711 6.42787C8.47808 6.02316 8.11873 5.786 7.88874 5.51166C7.72104 5.31162 7.71528 5.37505 7.86405 5.78279C8.02251 6.21692 8.23819 6.55787 8.57907 6.9129C8.95483 7.3043 9.23228 7.5124 10.1237 8.07147C10.9386 8.58252 11.3574 8.8966 11.6337 9.20406C11.8641 9.46032 12.1107 9.8681 12.2074 10.1526C12.2462 10.2667 12.2923 10.3602 12.3099 10.3602C12.3592 10.3602 12.722 9.5684 12.8491 9.18306C13.0817 8.47792 13.1315 8.158 13.129 7.38462C13.1271 6.78623 13.1151 6.64033 13.0481 6.39863C12.7777 5.42402 12.3064 4.7832 11.3062 4.03074C9.72415 2.84049 8.46688 1.46476 7.86838 0.268965C7.7885 0.109432 7.71328 -0.0112526 7.70119 0.000834335ZM3.28026 1.31554C3.1558 1.59587 3.03209 2.13745 2.98629 2.60237C2.89129 3.56692 3.11607 4.64163 3.63085 5.68432C4.01989 6.47226 4.50632 7.16517 5.20725 7.92983C5.37034 8.10773 5.49006 8.25322 5.47335 8.25314C5.39806 8.25285 4.91621 7.98187 4.6493 7.7897C3.90249 7.252 3.02954 6.19814 2.39148 5.06404C2.1907 4.70716 2.16807 4.74361 2.21062 5.35575C2.3265 7.02323 3.06007 8.5711 4.30221 9.76919C4.75523 10.2061 5.12028 10.4814 5.73816 10.8519C6.00773 11.0136 6.17044 11.1297 6.1083 11.116C5.43676 10.9678 4.93461 10.7989 4.408 10.5442C3.88605 10.2918 3.49542 10.0205 3.14216 9.66513C2.97435 9.49636 2.83707 9.37531 2.83707 9.39619C2.83707 9.41708 2.88678 9.55927 2.94755 9.71223C3.50174 11.1074 4.45827 12.2187 5.60176 12.7959C6.02991 13.012 6.8252 13.2417 7.15491 13.2444C7.2637 13.2453 7.27833 13.253 7.22766 13.2825C7.19277 13.3029 6.95158 13.3291 6.69169 13.3407C5.93247 13.3748 5.32299 13.246 4.90131 12.9622C4.79711 12.8921 4.70607 12.8405 4.69901 12.8475C4.6741 12.8724 5.08298 13.3387 5.34853 13.5883C6.42637 14.6014 7.62383 15.086 8.77952 14.9768C9.13388 14.9433 9.56812 14.839 9.84198 14.7216C9.93901 14.68 10.0234 14.6511 10.0296 14.6573C10.0359 14.6635 9.99095 14.8178 9.92985 15.0001C9.46877 16.3764 7.89078 18.1069 5.65096 19.6924C5.42186 19.8546 5.25028 19.9926 5.26965 19.999C5.34631 20.0246 6.72651 19.4432 7.87725 18.9007C8.05729 18.8158 8.21077 18.7525 8.21827 18.76C8.23808 18.7798 7.98573 19.1577 7.87019 19.2812C7.816 19.3392 7.68848 19.4346 7.58683 19.4934L7.40201 19.6002H7.53138C7.82879 19.6002 8.32021 19.2415 8.66774 18.7709C8.80266 18.5882 8.82598 18.5693 8.80476 18.66C8.79068 18.7201 8.73135 18.8594 8.67292 18.9696C8.61444 19.0798 8.57456 19.1779 8.58424 19.1876C8.65621 19.2596 9.35984 18.6097 9.87059 17.9995C10.1723 17.6391 10.234 17.585 10.4919 17.4553C12.3409 16.5257 14.3108 14.8184 15.4919 13.1219C15.8563 12.5986 16.1217 12.1428 16.2329 11.8494C16.3415 11.5629 16.4914 11.3958 16.7325 11.2922C16.88 11.2288 17.3531 11.2112 17.6316 11.2588L17.8071 11.2888V11.1318C17.8071 10.9003 17.6823 10.6725 17.4954 10.5629C17.4091 10.5124 17.3127 10.471 17.281 10.471C17.2491 10.471 17.1144 10.3073 16.9791 10.1041C16.6972 9.68062 16.5169 9.50993 16.1808 9.34832C15.9563 9.24035 15.9138 9.23281 15.5339 9.23315C15.2034 9.23344 15.0789 9.25 14.8686 9.32153C14.1564 9.56371 13.3388 10.1099 12.4552 10.9338C12.2866 11.091 12.1447 11.2133 12.1398 11.2057C12.1348 11.1981 12.1086 11.1253 12.0814 11.044C12.0543 10.9627 11.966 10.7631 11.8853 10.6004C11.2305 9.28083 9.68733 8.11775 7.74388 7.47906C7.4294 7.37571 7.14734 7.16854 6.68615 6.70217C5.62409 5.62814 4.50263 3.81624 3.65033 1.79724C3.34162 1.06589 3.37296 1.1067 3.28026 1.31554ZM3.39388 3.91009C3.38974 4.0001 3.58919 4.70554 3.71084 5.03107C4.08402 6.02996 4.67561 6.92306 5.35448 7.51244L5.62778 7.74971L5.43912 7.5487C4.62926 6.68572 4.02277 5.65431 3.5713 4.37213C3.47465 4.09768 3.39481 3.88976 3.39388 3.91009ZM11.4528 4.72601C12.281 5.66632 12.7268 6.94934 12.6591 8.19766C12.6342 8.65748 12.6894 8.47647 12.7379 7.93907C12.8511 6.68765 12.3949 5.51462 11.4864 4.72077L11.3201 4.57543L11.4528 4.72601ZM2.87403 7.03721C2.87403 7.04848 2.91709 7.16369 2.96973 7.29321C3.44763 8.46934 4.22692 9.41889 5.30916 10.1439C5.6453 10.3691 6.29427 10.7269 6.0543 10.5548C4.62242 9.52767 3.76462 8.61819 3.09925 7.4217C2.97538 7.19896 2.87403 7.02593 2.87403 7.03721ZM8.32709 8.30219C8.36719 8.32914 8.51645 8.41508 8.65876 8.49318C9.85489 9.14972 11.0634 10.2719 11.5968 11.2212C11.663 11.339 11.7247 11.4279 11.7338 11.4188C11.7602 11.3924 11.5444 10.8789 11.4142 10.6584C10.9457 9.86499 10.0187 9.08807 8.85219 8.51096C8.36734 8.27111 8.15517 8.18676 8.32709 8.30219ZM15.8555 9.92399C15.7851 9.99437 15.8038 10.1291 15.8926 10.1912C15.9619 10.2398 15.9853 10.2408 16.0497 10.1983C16.1396 10.1389 16.167 10.0076 16.1051 9.93304C16.0513 9.86817 15.9162 9.86329 15.8555 9.92399ZM4.39994 11.5562C5.15776 12.2995 6.1605 12.8353 6.96008 12.9242C7.06084 12.9354 7.11 12.9355 7.06934 12.9245C6.10062 12.6623 5.15983 12.144 4.23583 11.3634C4.0855 11.2364 4.14438 11.3056 4.39994 11.5562ZM15.2507 12.6796C14.3517 13.9165 12.8693 15.2907 11.2873 16.3538C10.71 16.7417 10.6837 16.7727 11.1353 16.5329C12.7737 15.6629 14.2504 14.3535 15.1172 13.0018C15.3173 12.6899 15.4903 12.3931 15.4722 12.3931C15.4648 12.3931 15.3652 12.5221 15.2507 12.6796ZM6.45151 14.1481C6.77516 14.3867 7.60346 14.666 8.15843 14.7236C8.6687 14.7766 9.30521 14.6951 9.65251 14.5324C9.73616 14.4931 9.77198 14.4707 9.73209 14.4824C9.32347 14.6026 8.27737 14.5928 7.64227 14.4629C7.32875 14.3988 6.85296 14.2594 6.42249 14.1056C6.392 14.0947 6.40504 14.1138 6.45151 14.1481Z" fill="currentColor"/>
</g>
<defs>
<clipPath id="clip0_8418_295">
<rect width="20" height="19.9998" fill="currentColor"/>
</clipPath>
</defs>
</svg>
