<svg width="20" height="20" viewBox="0 0 20 20" fill="none" xmlns="http://www.w3.org/2000/svg">
    <g clip-path="url(#a)">
        <path d="M7.28 6.345c.84.697 1.79 1.185 2.787 1.593-.445-.331-.884-.67-1.3-1.037a18.142 18.142 0 0 1-1.2-1.172C8.458 3.86 9.203 1.93 9.99 0l.051.118c.48 1.12.952 2.244 1.439 3.362a89.047 89.047 0 0 0 2.22 4.665c.945 1.87 1.924 3.723 2.909 5.573.306.577.616 1.152.924 1.729a.36.36 0 0 1 .043.113c-.209-.108-.415-.22-.628-.32a10.453 10.453 0 0 0-1.33-.514c-.225-.072-.454-.135-.68-.202l-.007.017c.019.012.037.026.058.037a15.05 15.05 0 0 1 2.625 1.752c.212.174.428.343.64.517a.354.354 0 0 1 .087.101c.54.996 1.077 1.992 1.615 2.988l.033.064c-.042 0-.066-.022-.093-.036-.688-.38-1.372-.767-2.066-1.136a28.04 28.04 0 0 0-2.922-1.358 16.07 16.07 0 0 0-2.658-.806c-.023-.005-.045-.012-.074-.02l.016-.091c.09-.457.126-.919.106-1.384a5.27 5.27 0 0 0-.448-1.978 3.24 3.24 0 0 0-.646-.963 1.86 1.86 0 0 0-.754-.482c-.437-.139-.85-.075-1.24.162a2.364 2.364 0 0 0-.734.736c-.275.414-.45.87-.566 1.35a5.82 5.82 0 0 0-.093 2.163c.022.154.054.308.082.468-.01.004-.022.014-.035.017-1.371.265-2.67.745-3.938 1.318-1.038.469-2.046.997-3.04 1.553-.266.148-.53.299-.794.449a.258.258 0 0 1-.092.036c.014-.027.026-.055.041-.082.444-.8.889-1.6 1.331-2.402a384.825 384.825 0 0 0 4.09-7.565 118.118 118.118 0 0 0 1.761-3.492l.057-.112Z" fill="currentColor"/>
    </g>
    <defs>
        <clipPath id="a"><path d="M0 0h20v20H0z"/></clipPath>
    </defs>
</svg>
