<svg width="20" height="20" viewBox="0 0 20 20" fill="none" xmlns="http://www.w3.org/2000/svg">
    <g clip-path="url(#a)">
        <path fill-rule="evenodd" clip-rule="evenodd" d="M10.721 2.33h1.596C12.283 2.268 10.062.045 9.994 0l-.42.42-1.756 1.754a5.32 5.32 0 0 0-.107.11l-.04.043c-.002.002-.002.005-.001.008l.002.006.005.01H9.31v.887L9.31 8.095c0 .064.018.109.064.153.136.133.27.267.404.402l.164.164.037.035.02.019.02-.017c.013-.01.024-.02.035-.031l.184-.184c.139-.138.277-.277.417-.414a.187.187 0 0 0 .059-.147c-.002-1.607-.002-3.215-.002-4.822v-.86l.006-.04c0-.008.002-.015.003-.023ZM2.352 9.267V7.663L0 10.013c.061.08 2.297 2.306 2.353 2.338V10.917l.001-.23h.86c1.627 0 3.255 0 4.882.002a.19.19 0 0 0 .15-.06c.132-.135.267-.269.401-.403l.175-.175a.325.325 0 0 0 .024-.027l.012-.015-.018-.02a47.709 47.709 0 0 1-.64-.644.23.23 0 0 0-.18-.075l-3.521.001h-.983a1586.07 1586.07 0 0 1-1.13-.002l-.034-.002Zm15.323-1.581v1.585H16.738c-1.592 0-3.184 0-4.777-.002a.222.222 0 0 0-.174.074c-.138.141-.278.28-.418.42l-.18.18c-.013.012-.024.025-.039.041l-.026.029.028.02a.393.393 0 0 1 .046.037l.091.092c.152.15.304.301.454.455.05.051.101.073.173.072h5.757v1.555c0 .018 0 .036.002.055l.001.03c.077-.052 2.304-2.283 2.324-2.318l-2.325-2.325Zm-6.962 9.944h1.632l-.002.007v.008l-.005.014-2.264 2.258L9.99 20c-.053-.03-2.319-2.289-2.37-2.367.052-.005.101-.004.15-.004H9.31l.001-.035.002-.061v-5.615c-.001-.054.01-.096.05-.136.14-.137.279-.276.417-.414l.167-.168.024-.021.014-.013.017.014.034.031.181.182.435.433a.186.186 0 0 1 .062.146c-.002.582-.001 1.163-.001 1.744v3.914Zm.34-6.608.038-.002.058-.003h.145c.097 0 .194.001.29-.001a.188.188 0 0 1 .149.062c.713.715 1.427 1.429 2.142 2.143h.001l.438.438.22.22.98.98.037.035.025.023 1.03-1.028.002-.002.706-.705.013.004.005.005v.014l.003.063c0 1.333 0 2.667-.002 4.002 0 .004-.002.008-.005.015l-.003.005-.004.01h-4.117l-.007-.019c.125-.13.253-.257.38-.385h.001l.175-.174a433.157 433.157 0 0 1 .957-.956l.178-.177-.019-.02-.034-.036-.357-.358-3.36-3.357a.203.203 0 0 1-.066-.161 16.769 16.769 0 0 0 .002-.542v-.093Zm4.502-5.91.023-.022 1.754 1.753.002-.04.002-.052V2.743a.202.202 0 0 0-.008-.067l-.004-.019h-4.099a.302.302 0 0 0-.037.003l-.009.001-.004.005v.001a.026.026 0 0 0-.003.006l-.003.009 1.748 1.747-.019.02-.032.035-2.9 2.9-.23.229-.63.629c-.034.034-.057.067-.056.119.002.109.002.218.002.326v.186c0 .069.003.072.075.072h.199l.313.001c.052 0 .09-.015.128-.053l.649-.648a340.881 340.881 0 0 0 1.13-1.13 939.47 939.47 0 0 1 1.67-1.668l.305-.303.034-.033ZM6.77 17.301H2.775c-.084 0-.085 0-.085-.085v-4.008l.017-.008.226.224.112.112.279.278.067.067.34.34.095.096.25.25.237.238.11.11.022-.02a.812.812 0 0 0 .041-.038l1.01-1.009.001-.001.003-.003.132-.132.344-.343.002-.003 2.301-2.3c.032-.032.064-.054.112-.054H8.926c.008 0 .016.002.026.004l.009.002h.007c0 .007.002.014.003.02a.262.262 0 0 1 .004.04v.195c0 .124 0 .247.002.37 0 .047-.02.076-.05.106l-.89.889-.035.034-2.874 2.874-.023.027-.014.016 1.689 1.692-.01.02ZM5.083 4.433l1.73-1.729-.01-.017-.019-.001a15893.084 15893.084 0 0 0-4.007-.002c-.084 0-.084 0-.085.084v3.95l.002.054.002.025.016.006 1.705-1.705.05.047.093.091 1.401 1.402 1.03 1.03.364.364c.284.284.568.567.851.852.038.038.076.062.133.062.113-.002.226-.001.34-.001h.218c.069 0 .073-.005.073-.075v-.151c0-.1-.001-.2.002-.3a.215.215 0 0 0-.073-.173L5.611 4.961l-.458-.457-.043-.045-.027-.028Zm7.092 6.59h5.152l.003.02c.003.014.005.027.005.04V12.625a.13.13 0 0 1-.042.1l-1.149 1.148-.004.004-.523.522a1.667 1.667 0 0 0-.054.046l-3.398-3.404.01-.02Zm-4.344.011a.373.373 0 0 1 .008-.02H2.792c-.021 0-.042 0-.063.002-.024.002-.037.015-.038.04V11.457c0 .393 0 .786-.002 1.179 0 .053.018.09.054.127l1.158 1.155.475.475.034.03.02.018.101-.1 3.29-3.29a.05.05 0 0 0 .01-.018ZM11.055 7.8l-.001-.025-.003-.051V2.75l.001-.054c0-.024.014-.037.038-.039h.414c.359 0 .718 0 1.076-.002.064 0 .11.02.155.065l1.228 1.23.43.429.03.033.014.015c-.044.068-3.33 3.344-3.382 3.371Zm-2.087 4.4-3.4 3.397.012.014.027.03.422.422.002.001v.001h.001l1.179 1.18c.043.044.09.06.15.06.39-.002.782-.002 1.173-.002h.424a.223.223 0 0 1 .007-.01c.004-.005.006-.007.006-.01a.202.202 0 0 0 .005-.038l-.003-5.04c0-.002-.002-.004-.004-.005-.002-.002-.005-.002-.001 0ZM5.566 4.43l.012-.014c.008-.01.016-.02.026-.03l.463-.463c.395-.394.79-.789 1.183-1.184a.184.184 0 0 1 .142-.058l1.04.001h.45c.018 0 .035.002.05.003l.017.001.008.007.005.004a.017.017 0 0 1 .003.007l.002.008a.106.106 0 0 1 .003.022v5.047a.106.106 0 0 1-.003.023l-.002.007-.003.003-.001.002C8.913 7.79 5.628 4.514 5.566 4.43Zm10 1.123-3.362 3.368.013.02h5.114l.003-.03a.854.854 0 0 0 .002-.062v-.431c0-.34 0-.68.002-1.02a.171.171 0 0 0-.055-.133l-1.271-1.269-.372-.372-.042-.04-.032-.03ZM2.696 8.925l-.001-.017c-.002-.014-.003-.03-.003-.046V7.365c-.001-.05.015-.086.05-.12l1.212-1.211.42-.42.026-.024.007-.006L7.76 8.937l-.003.003h-.002l-.013.001a23423.767 23423.767 0 0 1-5.007.001.068.068 0 0 1-.022-.004.036.036 0 0 1-.01-.006l-.008-.007Zm5.065.012c.003-.003.004-.005 0 0Zm3.309 3.309c-.02.068-.023 4.962-.005 5.05a1.828 1.828 0 0 1 .078.003 710.095 710.095 0 0 0 1.475.001.176.176 0 0 0 .136-.054c.383-.385.768-.77 1.152-1.153l.457-.457.03-.034.016-.02c-.368-.366-.734-.733-1.1-1.1l-2.24-2.236Z" fill="currentColor"/>
    </g>
    <defs>
        <clipPath id="a"><path d="M0 0h20v20H0z"/></clipPath>
    </defs>
</svg>
