<svg width="20" height="20" viewBox="0 0 20 20" fill="none" xmlns="http://www.w3.org/2000/svg">
    <g clip-path="url(#a)">
        <path fill-rule="evenodd" clip-rule="evenodd" d="m10.432 0-.11.005c.028.035.052.027.075.019a.097.097 0 0 1 .023-.006c.002 0 .004-.003.007-.008a.13.13 0 0 1 .005-.01ZM3.068 4.87c.117.028.19-.028.244-.107.057-.083.108-.17.15-.262.054-.12.105-.243.156-.365.038-.09.076-.18.115-.268.03-.068.064-.133.099-.197l.016-.03.004-.007c.012-.024.029-.055.045-.057.076-.005.093-.056.11-.108l.011-.035c.082-.207.216-.38.369-.534.208-.208.422-.41.636-.613l.226-.215.308-.292.147-.138.039.123a.207.207 0 0 1 .014-.005c.009-.003.016-.005.021-.01.419-.373.897-.651 1.4-.887.363-.17.729-.332 1.1-.495l.49-.218c.02.092.076.093.139.08L8.95.222l.476-.09.204-.031.092-.014.01.024-.324.19L9.563.3c.112-.002.217-.003.323.003.105.006.21.02.314.033l.133.016-.223.09.005.028.032.005c.023.003.046.007.069.008.19.012.377-.007.56-.051.237-.057.468-.051.7.024h.016l.017-.002-.015-.16.028.007a38.85 38.85 0 0 1 .293.092c.167.054.334.109.502.159.39.115.759.279 1.117.47.071.039.14.053.218.03l.106-.027c.042-.01.084-.02.126-.033.164-.048.317-.002.467.057.029.011.056.047.067.078a.518.518 0 0 0 .202.25c.12.085.244.164.374.236-.013-.08-.062-.13-.115-.184-.029-.03-.059-.06-.084-.097.011.004.02.008.029.01a.175.175 0 0 1 .035.015c1.144.695 2.033 1.631 2.623 2.844.095.196.166.404.237.612l.01.03c-.03-.012-.047-.037-.066-.063-.023-.032-.047-.066-.096-.08l.004.06v.001l.007.112c.002.043.01.086.017.128.015.088.03.176.003.268-.007.02.004.044.014.07l.013.032.077.264.212.723a.121.121 0 0 1 .002.06l-.018-.058c-.182-.575-.364-1.149-.704-1.674-.047.128-.137.128-.242.113-.114-.016-.146.011-.132.123.016.123.05.245.085.364a.199.199 0 0 0 .05.072.615.615 0 0 1 .034.039l.086-.107a.75.75 0 0 1 .155.341c.017.131.044.26.072.39a12.153 12.153 0 0 1 .066.324l.018.092c-.062-.045-.097-.104-.13-.16-.033-.056-.064-.11-.12-.145-.025.16.111.522.277.745-.094.03-.11.108-.104.189.006.12.016.242.038.36.029.154.058.167.217.122a.676.676 0 0 0-.003.032.237.237 0 0 1-.01.058 13 13 0 0 1-.085.234l-.04.107a2.158 2.158 0 0 0-.142.705l-.12-.283c-.026.073-.025.138-.025.199 0 .033.001.066-.003.097a.467.467 0 0 1-.03.013c-.022.009-.044.018-.06.034-.015.016-.019.051-.018.078.01.277-.065.535-.177.784l-.122.256-.05.104-.025.05c-.091.19-.184.38-.201.607l-.174-.234a1.588 1.588 0 0 0-.238.418.428.428 0 0 0-.012.19.413.413 0 0 1-.06.29c-.015-.02-.025-.034-.03-.049-.01-.03 0-.067.031-.177l-.065.054a1.794 1.794 0 0 0-.112.095c-.065.061-.129.124-.192.187-.112.11-.223.22-.34.322a4.671 4.671 0 0 1-2.423 1.15 4.538 4.538 0 0 1-1.707-.062c-.187-.043-.372-.096-.556-.15-.084-.024-.169-.049-.254-.072-.051-.015-.09-.036-.114-.093-.016-.035-.052-.062-.086-.088l-.015-.012c-.318-.247-.63-.5-.918-.783-.364-.36-.672-.759-.87-1.238a3.388 3.388 0 0 1-.25-1.275c-.002-.205.014-.41.03-.614l.016-.233a.261.261 0 0 1 .03-.09l.06-.122c.035-.07.07-.141.1-.214.035-.085.067-.171.1-.258.038-.102.076-.205.119-.305.075-.176.182-.332.34-.447a.188.188 0 0 0 .053-.064c.241-.468.625-.78 1.084-1.01a2.58 2.58 0 0 1 1.244-.274c.82.023 1.48.388 2.019 1a2.8 2.8 0 0 0-1.72-.605 2.806 2.806 0 0 0-1.743.563c-.873.647-1.231 1.546-1.213 2.634l.026-.008.03-.01a.535.535 0 0 1 .04-.027l.018.169a3.356 3.356 0 0 0 .944 2.09c.514.538 1.13.9 1.862 1.037.486.09.965.06 1.429-.13.01-.004.019-.01.029-.015.038-.02.077-.04.122.002.006.006.023 0 .04-.006a.278.278 0 0 1 .017-.005c.27-.073.519-.187.717-.396.074-.078.16-.145.255-.203l-.117.163c.061.044.105.016.144-.01l.052-.033c.084-.054.168-.109.243-.173.252-.215.501-.434.75-.652v-.001h.001l.16-.14c.092-.081.113-.188.104-.307a.634.634 0 0 1 .007-.192c.03-.125.086-.233.225-.272.11-.03.166-.108.2-.218.032-.108.069-.215.106-.321a8.12 8.12 0 0 0 .117-.356c.035-.12.045-.25.03-.404l-.11.19a7.03 7.03 0 0 1 .027-.158c.019-.107.037-.207.043-.307.016-.274.021-.55.024-.824.002-.185-.001-.37-.004-.555l-.004-.208v-.015c0-.023.001-.05-.008-.054-.068-.034-.067-.091-.066-.146v-.046c-.061-.656-.283-1.258-.602-1.825A6.26 6.26 0 0 0 14 2.962a4.25 4.25 0 0 0-1.89-.904 6.218 6.218 0 0 0-1.6-.142c-.163.008-.326.029-.493.05l-.232.027-.002-.006c-.004-.021-.012-.054-.063-.044l-.25.045c-.13.022-.26.045-.387.074a1.417 1.417 0 0 0-.47.211 2.63 2.63 0 0 1-.793.365c-.05.013-.053.016-.091.08l-.006.01c.08.013.152-.008.227-.029a.685.685 0 0 1 .182-.034.286.286 0 0 1-.186.124l-.034.007c-.118.023-.237.047-.356.056a1.29 1.29 0 0 0-.737.293 5.66 5.66 0 0 0-.26.232l-.1.09a.193.193 0 0 0-.024.03.782.782 0 0 1-.017.024c.07.016.119-.013.166-.041a.292.292 0 0 1 .085-.039c-.041.137-.094.18-.223.19-.147.01-.279.07-.406.139a3.81 3.81 0 0 0-.758.553 9.083 9.083 0 0 0-1.251 1.373c-.037.05-.07.102-.106.157a8.022 8.022 0 0 1-.053.08l.171.046-.034.083c-.024.06-.048.118-.075.174-.08.163-.162.324-.245.485l-.066.13a7.83 7.83 0 0 1-.054.105l-.052.1a1.903 1.903 0 0 0-.213.713c-.023.27-.05.54-.077.81-.032.313-.063.625-.088.939-.033.422-.045.848.036 1.268.032.168.083.328.18.472.02.03.03.074.027.11a4.59 4.59 0 0 1-.034.326.333.333 0 0 0 .035.21c.038.071.072.145.108.22l.047.102-.095.03c.07.224.143.44.253.643.08.147.187.248.367.25a.3.3 0 0 1 .223.106l.016.017c.06.07.123.141.167.222.068.127.13.259.19.39l.068.143a.111.111 0 0 1 .007.03l.004.023c-.148-.036-.238-.138-.327-.24l-.022.013.016.06c.012.044.024.088.04.13.095.242.23.46.378.673l.047.067.024.036-.109.139c.07.162.19.284.34.403l-.089.021-.001.024a.118.118 0 0 0 .003.053l.004.011c.024.06.05.121.085.174.175.256.352.51.533.77l.184.265.094-.124c.055.316.233.554.411.792l.051.067c.04.055.085.078.151.072.04-.003.082-.003.126-.002h.062c.2.29.437.547.794.675l-.15.213.032.014.06.024c.157.054.3.132.43.238.157.128.343.203.534.267.004.001.009 0 .016-.003l.008-.004.005-.002-.093-.188.012-.01a.966.966 0 0 0 .024.02c.018.015.035.03.05.046l.071.072c.07.07.14.142.205.217.32.37.728.587 1.202.68.132.027.265.05.398.075l.38.07c.083.017.165.037.246.058.037.01.074.02.111.028l-.002.025h-.123l-.251-.01c-.241-.011-.482-.022-.722-.035-.4-.023-.78-.128-1.159-.25a8.077 8.077 0 0 1-2.444-1.297c-1.848-1.42-3.116-3.255-3.811-5.489a8.441 8.441 0 0 1-.375-2.007c-.014-.236-.016-.474-.018-.71 0-.103-.002-.205-.004-.307l-.001-.091c-.003-.116-.005-.23-.004-.346l.008-.536c.003-.23.007-.459.008-.688.001-.14-.003-.28-.006-.42l-.004-.15v-.005a.16.16 0 0 0-.011-.066c-.058-.117-.025-.227.01-.339l.007-.023c.221-.727.464-1.445.787-2.132l.071-.15.037-.079Zm5.35 6.49.053.052c.04.039.078.077.115.118l.17.194c.098.11.195.222.296.329.08.085.169.162.257.24.024.02.048.04.071.062.031.027.07.046.114.058l-.046-.052c-.134-.148-.266-.295-.368-.47.326.31.677.582 1.09.777l.046-.063.063.057.135.122c.282.248.625.349.985.41.373.064.748.08 1.125.072.046 0 .093 0 .14.009a1.303 1.303 0 0 1-.46.11c-.567.043-1.105-.081-1.63-.288a4.916 4.916 0 0 1-1.723-1.12c-.159-.161-.3-.337-.419-.53-.01-.016-.018-.032-.026-.049l-.007-.013-.004-.01.023-.016Zm3.851-.774.067-.058-.01-.023c-.233.056-.47.05-.707.042h-.018a1.012 1.012 0 0 0-.109.004c-.017 0-.033.002-.05.003l-.014.032.016.01.036.019c.166.081.344.123.526.15a.11.11 0 0 0 .076-.021c.064-.051.126-.105.187-.158Zm-4.317.426.59 1.003-.021.017a1.538 1.538 0 0 0-.043-.041c-.03-.03-.062-.06-.087-.094a31.368 31.368 0 0 1-.45-.626.17.17 0 0 1-.021-.1.58.58 0 0 1 .018-.1c.005-.019.01-.038.014-.06Zm5.344-.987.05.025c.134-.17.26-.422.286-.577l-.05.094h-.001c-.037.069-.072.134-.11.198-.068.112-.177.155-.319.186l-.004-.003c.023-.109.076-.196.13-.283.041-.068.083-.137.11-.216a1.108 1.108 0 0 0-.256.38c-.02.06-.019.091.016.119l-.001.004h.005a.297.297 0 0 0 .049.026l.095.047ZM2.459 4.698l.103-.4.151-.021c-.013.198-.08.342-.254.42Zm11.43 3.674.03.073.036-.004a.773.773 0 0 0-.01-.46c-.086.055-.147.16-.126.222.02.057.045.113.07.17ZM2.168 5.794l-.127.582a.508.508 0 0 1 .126-.582Zm6.312 5.333.021.033c-.004-.133-.075-.23-.145-.328-.032-.044-.064-.088-.09-.135.049.123.108.24.17.356.013.025.028.05.044.074ZM10.763.23c-.078.065-.144.034-.21.003-.031-.015-.063-.03-.096-.034l.306.031Zm6.682 9.189-.002.009-.002-.002.004-.007Zm0 0 .045-.328.027.005c-.007.033-.012.068-.016.102-.01.076-.02.15-.056.22Zm-.005.007-.002.02-.043.163.027.005.016-.168.005-.018-.003-.002Z" fill="currentColor"/>
    </g>
    <defs>
        <clipPath id="a"><path d="M0 0h20v20H0z"/></clipPath>
    </defs>
</svg>
