<svg width="20" height="20" viewBox="0 0 20 20" fill="none" xmlns="http://www.w3.org/2000/svg">
    <g clip-path="url(#a)" fill="currentColor">
        <path opacity=".5" fill-rule="evenodd" clip-rule="evenodd" d="M14.323 0a5.67 5.67 0 0 0-5.664 5.664v3.007H5.664A5.67 5.67 0 0 0 0 14.336 5.67 5.67 0 0 0 5.664 20a5.67 5.67 0 0 0 5.665-5.665V11.33h2.994a5.671 5.671 0 0 0 5.665-5.665A5.67 5.67 0 0 0 14.323 0ZM8.679 14.335a3.018 3.018 0 0 1-3.015 3.015 3.018 3.018 0 0 1-3.015-3.015 3.018 3.018 0 0 1 3.015-3.015h2.994v.009h.021v3.006Zm2.65-5.656h2.994a3.018 3.018 0 0 0 3.015-3.015 3.018 3.018 0 0 0-3.015-3.015 3.018 3.018 0 0 0-3.015 3.015v3.007h.02v.008Z"/>
        <path d="M15.575.172a4.507 4.507 0 0 0-1.252-.169 5.668 5.668 0 0 0-5.668 5.668v3.003H6.282c-.74 0-1.338.582-1.338 1.32 0 .735.592 1.319 1.324 1.319h1.965c.233 0 .423.189.423.422v2.6a2.992 2.992 0 0 1-2.992 2.986c-.559 0-.697-.074-1.079-.074-.801 0-1.338.538-1.338 1.277 0 .61.524 1.136 1.165 1.304.44.115.777.169 1.252.169a5.668 5.668 0 0 0 5.668-5.668v-3.003h2.373c.74 0 1.338-.582 1.338-1.32 0-.735-.592-1.319-1.324-1.319h-1.965a.422.422 0 0 1-.423-.422v-2.6a2.992 2.992 0 0 1 2.992-2.986c.559 0 .697.073 1.079.073.801 0 1.338-.537 1.338-1.276 0-.611-.524-1.136-1.165-1.304Z"/>
    </g>
    <defs>
        <clipPath id="a"><path d="M0 0h20v20H0z"/></clipPath>
    </defs>
</svg>
