<svg width="20" height="20" viewBox="0 0 20 20" fill="none" xmlns="http://www.w3.org/2000/svg">
    <g clip-path="url(#a)">
        <path fill-rule="evenodd" clip-rule="evenodd" d="M10.455.547c3.552 1.606 7.897 5.596 8.431 7.544.188.685.152 1.778-.172 2.388-.402.755-1.794 2.288-3.698 3.87-2.987 2.483-7.174 5.149-10.3 5.597-1.01.145-2.041-.006-2.765-.417C.887 18.926.49 18.133.337 17.825l-.028-.054c-.323-.628-.312-1.41-.308-1.745l.001-.078c.002-.844.716-2.021 1.729-3.091.677-.716 1.365-1.343 2.865-2.63-.23-.126-.487-.258-.757-.397-.954-.49-2.073-1.065-2.703-1.77-.3-.334-.842-1.092-.737-2.105C.613 3.891 3.147.76 6.749.098a6.461 6.461 0 0 1 3.706.45Zm-1.368 8.79c2.195.306 4.087-.578 4.383-2.758.225-1.66-2.302-3.474-3.821-3.893-1.27-.35-4.024.1-4.21 2.513-.192 2.509 2.368 3.958 3.648 4.137Z" fill="currentColor"/>
    </g>
    <defs>
        <clipPath id="a"><path d="M0 0h20v20H0z"/></clipPath>
    </defs>
</svg>
