<svg width="20" height="20" viewBox="0 0 20 20" fill="none" xmlns="http://www.w3.org/2000/svg">
    <g clip-path="url(#a)">
        <path fill-rule="evenodd" clip-rule="evenodd" d="M16.786 15.1c-.033.655.403.997.937 1.214.534.216.69.93-.16 1.397-.148.082-.315.172-.494.268-.847.455-1.953 1.048-2.418 1.538-.563.588-1.44.558-1.848.337-.408-.217-.626-.713-.626-.713s-1.127-.279-2.316-.246c-1.189.029-2.32.28-2.32.28s-.31.805-1.315.679c-.49-.06-1.029-.254-1.575-.452-.566-.206-1.14-.414-1.681-.478-1.067-.125-2.16-.342-1.942-1.055.04-.131.08-.25.116-.358.16-.479.257-.77.103-1.226-.189-.56-.189-1.06.592-1.218.787-.15 1.223-.372 1.442-.834.222-.468.504-.564.504-.564s-.282-.65.122-1.363c.18-.313.358-.82.55-1.363.247-.701.515-1.461.832-1.936.272-.405.61-.847.902-1.228.312-.407.57-.744.632-.886.122-.271.156-1.026.093-2.081-.009-.136-.022-.292-.037-.462-.102-1.15-.261-2.948.885-3.734 1.316-.9 3.757-1.026 4.698 1.088.456 1.023.485 1.938.511 2.773.028.887.053 1.683.586 2.42 1.034 1.426 2.379 3.324 2.786 4.503.408 1.185-.03 2.616-.03 2.616s.5.433.471 1.084ZM10.394 2.605c.538 0 .972.53.972 1.181 0 .462-.219.863-.538 1.055l-.13-.055a12.37 12.37 0 0 0-.127-.054c.193-.095.328-.337.328-.617 0-.366-.227-.667-.512-.667-.278 0-.51.3-.51.667a.82.82 0 0 0 .09.371c-.169-.067-.32-.124-.442-.17a1.43 1.43 0 0 1-.101-.53c0-.651.432-1.18.97-1.18Zm-2.49.188c.423 0 .768.5.768 1.118 0 .112-.013.217-.033.321a.868.868 0 0 0-.312.175L8.3 4.43c-.04.033-.077.064-.11.098a.804.804 0 0 0 .062-.492c-.059-.333-.285-.58-.508-.547-.224.038-.357.343-.304.68.06.342.282.589.51.551l.017-.006.02-.007c-.109.105-.21.197-.315.272-.307-.142-.534-.567-.534-1.068 0-.621.34-1.118.765-1.118Zm4.714 11.372c-.093.438-.093 2.024-.093 2.024s-.971 1.334-2.475 1.555c-1.504.217-2.257.059-2.257.059l-.844-.96s.656-.096.563-.75c-.047-.33-.562-.725-1.104-1.14-.526-.402-1.076-.822-1.245-1.221-.344-.81-.064-2.177.379-2.861.203-.318.373-.812.54-1.299.192-.559.381-1.11.615-1.374.44-.496.78-1.552.626-2.018 0 0 .941 1.117 1.596.934.287-.082.73-.336 1.157-.58.549-.316 1.07-.614 1.193-.51.218.189 2.096 4.288 2.286 5.594.189 1.305-.126 2.302-.126 2.302s-.719-.188-.811.245Zm4.807 2.932c-.118.107-.452.277-.84.473-.58.294-1.281.65-1.573.954-.483.505-1.117.918-1.504.796-.39-.12-.731-.65-.563-1.425.173-.772.32-1.619.294-2.102-.006-.12-.017-.249-.027-.378-.032-.393-.064-.78.027-.853.122-.095.316-.05.316-.05s-.097.918.462 1.159c.559.242 1.36-.095 1.605-.337.243-.242.415-.6.415-.6s.245.12.22.503c-.026.389.168.943.533 1.135l.059.03c.363.19.85.442.576.695ZM6.449 19.271s.53-.326.626-.772c.1-.446-.223-.943-.576-1.317-.254-.272-.778-1.141-1.128-1.724-.13-.215-.236-.391-.296-.483-.227-.35-.778-.972-1.076-.796-.144.08-.236.27-.334.47-.108.221-.222.455-.418.572-.153.092-.405.147-.656.2-.364.08-.723.157-.768.346-.036.154-.005.301.03.466.04.18.082.379.045.627-.026.16-.078.321-.128.475-.096.3-.182.569-.048.718.103.116.575.192 1.087.274.462.074.956.153 1.24.272l.085.035c.632.264 1.861.776 2.315.637Zm3.54-14.306c-.324-.128-.74-.292-.926-.325-.27-.049-.715.326-.887.485-.172.154-.567.454-.567.454-.127.216.378.625.647.8l.134.089c.19.128.323.218.53.191.235-.03.937-.453 1.324-.685l.08-.048c.113-.069.205-.116.278-.154.163-.084.236-.122.26-.244.028-.17-.27-.341-.539-.433-.08-.028-.199-.076-.335-.13Z" fill="currentColor"/>
    </g>
    <defs>
        <clipPath id="a"><path d="M0 0h20v20H0z"/></clipPath>
    </defs>
</svg>
