<svg width="20" height="20" viewBox="0 0 20 20" fill="none" xmlns="http://www.w3.org/2000/svg">
    <path fill-rule="evenodd" clip-rule="evenodd" d="M17.305 1H2.695C1.209 1 0 2.281 0 3.856v12.288C0 17.719 1.209 19 2.695 19h14.61C18.791 19 20 17.719 20 16.144V3.856C20 2.281 18.791 1 17.305 1ZM1.075 16.144V3.856c0-.947.727-1.856 1.62-1.856h6.834L5.775 9.736a.6.6 0 0 0 .016.559c.098.17.272.274.46.274h3.212v4.235a7.05 7.05 0 0 1-2.07-.19c-1.485-.362-2.354-1.11-2.365-1.12a.517.517 0 0 0-.755.073c-.19.241-.16.6.067.802.041.037 1.035.906 2.75 1.34a7.943 7.943 0 0 0 2.373.228V18H2.695c-.893 0-1.62-.91-1.62-1.856Zm17.85 0c0 .947-.727 1.856-1.62 1.856h-6.768v-2.185c1.088-.19 2.31-.608 3.633-1.384a.588.588 0 0 0 .21-.774.522.522 0 0 0-.73-.222c-1.053.618-2.093 1.028-3.113 1.231V10c0-.315-.24-.57-.537-.57H7.14L10.741 2h6.563c.894 0 1.62.91 1.62 1.856v12.288ZM13.91 4.518c-.297 0-.537.255-.537.57v2.58c0 .314.24.57.537.57.297 0 .537-.256.537-.57v-2.58c0-.315-.24-.57-.537-.57Zm-8.688 3.15c0 .314-.24.57-.537.57-.297 0-.538-.256-.538-.57v-2.58c0-.315.24-.57.538-.57.296 0 .537.255.537.57v2.58Z" fill="currentColor"/>
</svg>
