<svg width="20" height="20" viewBox="0 0 20 20" fill="none" xmlns="http://www.w3.org/2000/svg">
    <g clip-path="url(#a)">
        <path fill-rule="evenodd" clip-rule="evenodd" d="M10.37.752a.752.752 0 1 1-1.505 0 .752.752 0 0 1 1.505 0Zm1.09 2.407a.865.865 0 1 0 0-1.73.865.865 0 0 0 0 1.73Zm-.564.714a.94.94 0 1 1-1.88 0 .94.94 0 0 1 1.88 0Zm-.186 1.955c0 .58.473 1.052 1.053 1.052h.001c.58 0 1.052-.473 1.052-1.054a1.054 1.054 0 0 0-2.106.003Zm-1.995 1.88h.001a1.13 1.13 0 0 0 1.127-1.13 1.13 1.13 0 1 0-1.128 1.13Zm6.132 1.095c-.386-.405-.942-.345-1.348-.086-1.186.614-1.826.859-3.166.853-1.297-.006-1.978-.218-3.164-.864-.405-.248-1.02-.308-1.406.097C4.789 10.063 4 11.482 4 13.201 4 16.927 6.827 20 10.333 20c3.505 0 6.333-3.073 6.333-6.798 0-1.72-.791-3.093-1.82-4.4ZM5.21 13.201c0 3.054 2.344 5.494 5.122 5.494 2.777 0 5.029-2.44 5.029-5.494 0-1.233-.633-2.407-1.304-3.353-1.23.68-2.324 1.024-3.725 1.024-1.4 0-2.496-.344-3.725-1.024-.673.947-1.397 2.121-1.397 3.353Z" fill="currentColor"/>
    </g>
    <defs>
        <clipPath id="a"><path d="M0 0h20v20H0z"/></clipPath>
    </defs>
</svg>
