<svg width="20" height="20" viewBox="0 0 20 20" fill="none" xmlns="http://www.w3.org/2000/svg">
    <g clip-path="url(#a)">
        <path fill-rule="evenodd" clip-rule="evenodd" d="M11.463 17.384 9.484 13.63h-.852l1.988 4.13s.2.39.63.174c.43-.215.213-.551.213-.551ZM4.037 3.304s-.06-.136-.227-.046c-.14.076-.067.216-.067.216L6.359 8.91h.635L4.036 3.303Zm7.487-.246c2.51-.738 4.754-1.297 7.235-.127-2.402-.565-4.399.26-6.52 1.32 2.166-.577 4.044-.83 6.116.19-2.451-.55-4.39.398-6.535 1.451-1.786.878-3.451 1.602-5.462 1.043L5.67 5.728l-.232-.406-.526-.925-.032-.056-.002-.003-.002-.003-.652-1.145c2.525 1.012 4.773.61 7.3-.132Zm-7.455 8.549c0 .407 0 .801.013 1.008-.045.075-.223.144-.376.144a10.493 10.493 0 0 0-.516-.683l-1.472-1.79c-.364-.452-.58-.708-.695-.802-.032.062-.032.169-.032.4V11.1c0 .507.026.976.096 1.146.057.131.204.169.37.2l.178.025c.05.05.038.182 0 .219-.344-.012-.6-.019-.854-.019-.236 0-.472.007-.714.019-.038-.037-.05-.169 0-.219l.108-.019c.172-.037.293-.075.35-.206.065-.17.09-.64.09-1.146V9.509c0-.344 0-.445-.045-.532-.044-.107-.14-.17-.363-.213L.03 8.739c-.045-.05-.038-.2.025-.22.3.013.618.02.88.02.216 0 .401-.007.535-.02.062.272.448.723.988 1.354l.064.074.535.62.252.29c.15.173.262.303.36.4.025-.063.025-.17.025-.283v-.864c0-.507-.025-.977-.095-1.146-.058-.131-.198-.169-.37-.2l-.172-.025c-.05-.05-.038-.182 0-.22.344.013.593.02.854.02.236 0 .465-.007.714-.02.038.038.05.17 0 .22l-.115.018c-.165.038-.287.076-.344.207-.07.17-.096.639-.096 1.146v1.497Zm.935-.307c0-.1.012-.113.159-.113h1.224c.197 0 .229-.087.229-.206 0-.483-.357-.902-1.02-.902-.796 0-1.376.613-1.376 1.402 0 .683.465 1.278 1.325 1.278.383 0 .854-.182 1.116-.714a.143.143 0 0 0-.166-.144c-.172.288-.414.326-.593.326-.592 0-.898-.457-.898-.927Zm.58-.388a.52.52 0 0 0 .26-.057c.033-.019.045-.081.045-.144 0-.206-.12-.344-.337-.344-.268 0-.497.25-.497.45 0 .088.089.095.293.095h.235Zm2.2-.263c0-.138.006-.144.088-.144h.574c.064-.038.083-.15.083-.22 0-.056-.02-.094-.051-.119H7.91c-.115 0-.121-.006-.121-.125v-.47c-.032-.05-.147-.056-.192-.031a1.955 1.955 0 0 1-.471.489c-.153.1-.332.213-.53.281-.05.044-.031.17.04.195h.197c.114 0 .12.012.12.144v1.396c0 .414.185.714.714.714.396 0 .74-.175.918-.363.013-.075-.025-.144-.089-.163a.531.531 0 0 1-.268.094c-.446 0-.446-.388-.446-.74v-.938Zm1.23-1.823-.172-.025c-.057-.031-.07-.22.026-.225.484-.032.95-.057 1.587-.057.611 0 1.02.07 1.3.232.274.163.44.426.44.795 0 .526-.453.733-.65.783-.064.013-.128.038-.128.07 0 .018.032.037.09.05.503.106.93.431.936 1.039.007.576-.344.914-.745 1.052-.402.138-.88.156-1.269.156-.12 0-.245-.007-.363-.013-.106-.006-.206-.012-.293-.012-.313 0-.625.007-.988.019-.051-.037-.051-.2 0-.219l.185-.038c.286-.056.325-.1.325-.663V9.559c0-.633-.013-.701-.28-.733Zm2.441 2.718c0 .508-.248.864-.72.864-.497 0-.56-.306-.56-.795v-.739c0-.25 0-.257.35-.257.612 0 .93.382.93.927Zm-.943-1.202c.548 0 .752-.345.752-.72 0-.545-.344-.815-.784-.815-.3 0-.306.05-.306.326v1.033c0 .163.007.176.338.176Zm2.238 2.192c.133.075.497.237 1.083.237.962 0 1.606-.5 1.606-1.27 0-.69-.503-1.053-.898-1.26l-.421-.219c-.319-.163-.58-.425-.58-.714 0-.313.23-.582.65-.582.459 0 .733.457.841.777.058.062.217.056.249-.02 0-.419-.064-.757-.115-.895a1.543 1.543 0 0 1-.216-.05 2.626 2.626 0 0 0-.727-.1c-.924 0-1.479.488-1.479 1.196.007.62.504.996.963 1.221.382.188.866.489.866.996 0 .313-.216.632-.688.632-.542 0-.969-.576-1.096-.983-.051-.069-.198-.062-.242.02 0 .425.083.876.204 1.014Zm3.178-2.981c0-.595-.013-.714-.306-.746l-.121-.012c-.064-.031-.064-.213.012-.22a27.058 27.058 0 0 1 1.708-.056c.523 0 1.046.05 1.485.207A1.9 1.9 0 0 1 20 10.542c0 .84-.408 1.516-1.14 1.873-.434.213-.957.294-1.613.294-.16 0-.325-.01-.48-.02a6.03 6.03 0 0 0-.368-.018c-.306 0-.63.007-.994.019-.05-.037-.05-.188 0-.219l.198-.031c.286-.05.325-.094.325-.67V9.553Zm1.038 2.686c-.114-.131-.127-.357-.127-.701V9.252c0-.194.007-.313.045-.363.038-.05.16-.082.331-.082 1.154 0 1.76.67 1.76 1.798 0 .852-.377 1.816-1.48 1.816-.229 0-.414-.056-.529-.182Z" fill="currentColor"/>
    </g>
    <defs>
        <clipPath id="a"><path d="M0 0h20v20H0z"/></clipPath>
    </defs>
</svg>
