<svg width="20" height="20" viewBox="0 0 20 20" fill="none" xmlns="http://www.w3.org/2000/svg">
    <g clip-path="url(#a)">
        <path d="M11.413 1c-.169.392-.122.85-.245 1.257-.028.094-.12.377-.256.358-.278-.04-.134-.574-.455-.584.09.22.112.488.101.779-.481.06-.744-1.47-.94-1.776 0 0 .05.94.064 1.097.01.101.03.201.043.302.02.175.026.328.003.503 0 0-.527-.9-.862-1.077.218.467.366.88.26 1.102-.51-.005-.827-.416-1.051-.806-.093-.163-.462-.476-.462-.476.105.453.457.936.482 1.407.007.122-.108.431-.277.375-.39-.132-.54-.415-.78-.727-.24-.313-.734-.872-.734-.872 0 .376.775 1.4.906 1.752.028.076.107.342-.057.337-.295-.009-.368-.58-.667-.513.036.154.128.28.179.428.031.09.089.182.105.276.037.206-.224.223-.36.183-.32-.094-.55-.356-.779-.585-.063-.063-.32-.188-.663-.216 0 0 .44.341.505.417.196.226.407.491.5.78.041.123.049.3-.074.384-.122.084-.32-.069-.419-.133-.301-.199-1.55-.86-1.55-.86s.118.212.335.398l.388.462.626.704-.729-.302c.03.19.486.421.396.618-.053.116-.317.118-.421.103-.372-.053-1.583-.705-1.929-.804 0 0 1.637 1.404 1.778 1.566-.11.263-.187.606-.233.855-.203 0-1.699-.633-1.699-.633s1.184 1.019 1.404 1.19c.084.064.206.175.11.287-.187.22-.94.06-.94.06.23.135.7.21.835.458.105.193-.195.63-.407.613-.19-.016-.363-.23-.503-.341-.334-.269-.691-.584-1.08-.77-.668-.317-1.332.189-1.86.518 0 0 .334-.013.502.025.226.05.397.261.542.428.7.806 1.286 1.72 1.548 2.765.105.628-.464 1.145-.464 1.145s.37-.048.79-.185c.42-.136.662-.195.83-.558.103-.225.14-.664.399-.754.057.242.329.561.302.804-.023.216-.25.467-.384.627-.047.056-.16.18-.092.262.067.08.207-.094.25-.133.19-.18.607-.465.72-.052.099.36-.218.941-.376 1.257-.044.088-.246.363-.167.461.091.113.282-.181.322-.235.159-.207.714-.822 1.009-.601.359.27.235.462.099.828-.039.103-.18.36-.084.459.093.094.216.008.263-.083.087-.163.319-.65.551-.525.145.077.368.21.452.354.132.227.017.68-.018.926-.02.142-.173.585-.046.687.117.095.212-.19.247-.26a3.23 3.23 0 0 1 .45-.704c.067-.074.16-.197.273-.177.583.11-.013.691.226.988.049.06.18.056.251.07l.302-.78c.153.06.379.08.492.207.095.106.114.286.141.421.077.379.12.747.07 1.132.048.034.124.114.188.073.081-.052.091-.263.12-.35.088-.277.223-.542.349-.804.083-.173.308-.357.471-.119.168.244.1.67.205.948.267-.131.296-.687.302-.955l.346.05.208.428.376 1.08c.194-.074.133-.448.154-.628.03-.244.087-.734.266-.916.072-.073.215-.08.309-.114.106.26.165.555.294.804.05.096.165.201.281.142.111-.057.107-.187.093-.293-.035-.26-.095-.517-.115-.78.498-.034.79.369 1.104.705.12.13.226.302.404.352l-.258-.755-.144-.703c.18-.076.563-.446.754-.392.284.08.5.871.853.685.15-.08.073-.213.002-.319-.105-.156-.421-.532-.387-.729.025-.145.27-.315.412-.313.326.005.892.253 1.08.514l.227-.025c-.034-.45-.708-.655-.805-1.106a.338.338 0 0 1 .003-.143c.072-.29.245-.163.425-.085.056.024.178.086.224.017.051-.077-.04-.177-.072-.241-.068-.13-.13-.281-.102-.428.235.062.38.202.578.334.047.03.15.109.21.065.062-.045-.03-.138-.06-.172-.088-.103-.36-.351-.332-.5.018-.102.188-.21.258-.28.23-.229.491-.463.678-.729h.026c.444.518 1.835.155 1.659-.628-.111.016-.214.103-.327.064-.495-.17-.376-.964-.93-.969-.041-.517-.249-1.034-.5-1.483-.114-.206-.353-.395-.437-.604-.046-.117-.038-.301-.044-.427.291-.045.148-.34.042-.502-.118-.182-.243-.398-.396-.551-.188-.189-.468-.311-.444-.63.023-.299.535-.26.622-.529-.152.007-.302.044-.452.07-.373.062-.439-.064-.264-.397.152-.29.395-.51.609-.754.068-.078.28-.255.17-.367-.09-.094-.238.049-.314.1-.277.183-.587.319-.905.417-.095.03-.373.139-.405-.029-.043-.226.386-.268.33-.523-.172.04-.508.311-.673.186-.198-.151.093-.536.124-.714.031-.18-.113-.186-.215-.074-.036.04-.068.083-.1.124a1.024 1.024 0 0 0-.142.227c-.412-.24.367-.52.22-.742-.051-.08-.148 0-.195.04-.097.086-.465.51-.545.199-.088-.344.09-.757.183-1.081.024-.085.133-.313.027-.374-.154-.089-.222.21-.258.299-.111.27-.296.505-.513.699-.071.064-.193.188-.3.158-.155-.042-.156-.474-.151-.606.002-.063.037-.171-.024-.217-.08-.06-.122.06-.134.116-.039.186-.153.714-.428.368-.248-.314.136-.965-.37-1.097-.012.364-.088.67-.277.88-.331-.072-.258-.546-.176-.804 0 0 .08-.292-.038-.406-.134.376-.519 1.106-.657.682-.105-.323-.068-.673-.12-1.005-.021-.133-.034-.267-.165-.327Z" fill="currentColor"/>
    </g>
    <defs>
        <clipPath id="a"><path d="M0 0h20v20H0z"/></clipPath>
    </defs>
</svg>
