<svg width="20" height="20" viewBox="0 0 20 20" fill="none" xmlns="http://www.w3.org/2000/svg">
    <g clip-path="url(#a)">
        <path fill-rule="evenodd" clip-rule="evenodd" d="M13.539 11.771c-.605.023-1.297-.063-1.99-.17l-.155-.022c-.232-.034-.462-.067-.686-.141-.059-.02-.12-.027-.182-.036-.044-.006-.089-.012-.132-.021a9.964 9.964 0 0 1-.383-.1l-.06-.016c-.023-.006-.046-.015-.069-.023-.02-.008-.042-.016-.063-.022l-.306-.087a10.578 10.578 0 0 1-1.252-.404 33.861 33.861 0 0 1-.984-.386 8.34 8.34 0 0 1-.442-.205l-.171-.083-.126-.06c-.126-.059-.252-.118-.376-.183a59.13 59.13 0 0 1-1.234-.659 7.52 7.52 0 0 1-.682-.403 26.008 26.008 0 0 1-1.154-.86 6.885 6.885 0 0 1-.524-.464 3.765 3.765 0 0 1-.741-.969c-.192-.365-.269-.762-.051-1.157.116-.21.289-.378.49-.492a3.18 3.18 0 0 1 1.407-.404c.298-.016.598-.014.898-.012h.38c.033 0 .066.004.1.009.188.026.21.068.149.25-.1.293-.089.574.056.857.203.399.52.675.89.898.312.188.632.365.958.527.154.077.316.136.478.195l.207.076.12.047c.139.054.278.108.418.16.073.025.145.052.217.079.221.081.442.163.669.228.363.105.732.193 1.103.27.227.046.46.066.693.079a.923.923 0 0 0 .331-.058c.123-.04.143-.147.042-.23a1.476 1.476 0 0 1-.41-.562l-.009-.02c-.04-.09-.081-.184-.1-.28-.094-.487-.374-.792-.837-.958-.394-.142-.799-.23-1.205-.319-.119-.026-.238-.052-.357-.08l-.16-.035c-.315-.07-.633-.142-.931-.278a5.032 5.032 0 0 0-.325-.13c-.102-.038-.204-.076-.304-.12a2.349 2.349 0 0 1-.854-.607c-.216-.251-.257-.544-.22-.85l.01-.094c.032-.275.065-.552.175-.811a.503.503 0 0 0 .026-.096l.004-.021c.026-.117.05-.235.074-.352.054-.257.107-.514.171-.768.092-.364.252-.7.563-.925.204-.146.424-.267.69-.289A5.413 5.413 0 0 1 9.07.303c.578.133 1.16.147 1.733-.06a.935.935 0 0 1 .146-.035c.036-.007.072-.014.107-.023l.059-.014c.061-.014.125-.028.163-.066.103-.104.222-.104.346-.105h.003l1.119.001c.093 0 .18.004.254.086.036.04.101.057.16.072l.02.005c.305.08.568.24.779.467.17.185.325.392.453.61.199.339.376.693.549 1.047.074.152.136.31.198.469l.079.197.081.198c.08.194.16.387.234.583l.008.019c.067.175.134.351.176.533.031.13.068.26.104.39.089.314.177.629.182.965.006.41-.12.762-.347 1.088l-.014.02c-.012.014-.023.03-.03.047-.03.064-.048.141.02.18.042.026.124.027.164.001.111-.072.22-.153.31-.25.122-.132.244-.266.304-.445.029-.088.08-.17.13-.249l.01-.016c.056-.09.133-.107.241-.086.302.059.594.154.87.282.547.253 1.067.556 1.403 1.088.303.48.368 1.004.203 1.546-.053.177-.132.347-.211.516l-.068.148c-.155.345-.423.6-.69.852a3.733 3.733 0 0 1-.8.562c-.197.107-.41.187-.621.265-.271.1-.547.19-.822.278l-.064.022a2.01 2.01 0 0 1-.29.07c-.09.015-.18.027-.269.04a6.825 6.825 0 0 0-.383.06c-.473.094-.951.111-1.53.11ZM6.69 2.364c-.006.25.104.448.323.614.07.053.131.118.192.183.02.023.042.045.063.066.03.03.058.063.087.094.047.053.094.105.146.152.163.144.25.135.416-.008l.062-.055a.921.921 0 0 1 .273-.192c.204-.076.422-.123.638-.155.24-.035.481-.054.723-.073l.151-.012c.148-.012.276-.062.357-.189.027-.042.04-.13.015-.163-.062-.082-.139-.183-.23-.21-.285-.085-.577-.149-.884-.114a13.1 13.1 0 0 1-.687.054c-.103.006-.205.012-.308.02a.527.527 0 0 1-.376-.107c-.05-.04-.102-.08-.154-.119l-.225-.173c-.185-.147-.28-.141-.452.019-.11.102-.121.233-.13.368ZM11.251.778a2.315 2.315 0 0 0-.07-.018c.036-.125.112-.138.178-.148l.007-.001c.522-.084 1.048-.126 1.567.003.226.056.432.168.57.376.07.106.07.205-.004.298-.118.148-.247.281-.447.317a2.71 2.71 0 0 0-.29.074c-.25.074-.5.057-.752.012L12 1.69c-.017-.003-.035-.006-.046-.016a2 2 0 0 1-.13-.136c.014-.01.027-.022.04-.034.03-.027.059-.053.092-.073.02-.011.043-.016.066-.02a.215.215 0 0 0 .067-.021l.021-.013c.067-.039.136-.08.185-.136.097-.11.079-.18-.043-.26a.863.863 0 0 0-.433-.139 9.922 9.922 0 0 1-.438-.036c-.042-.004-.084-.015-.13-.028ZM10.477 20c-.69-.021-1.374-.045-2.047-.206-.158-.038-.316-.071-.475-.105a12.99 12.99 0 0 1-.691-.16 4.748 4.748 0 0 1-.52-.184 10.783 10.783 0 0 0-.252-.1c-.01-.005-.02-.01-.032-.013-.222-.062-.427-.164-.632-.266a6.979 6.979 0 0 0-.312-.149 7.416 7.416 0 0 1-.892-.485 11.111 11.111 0 0 1-.914-.643 9.97 9.97 0 0 1-1.423-1.32 9.918 9.918 0 0 1-1.12-1.488l-.137-.228c-.13-.216-.26-.432-.384-.65a4.064 4.064 0 0 1-.198-.417 17.74 17.74 0 0 1-.133-.323c-.047-.115-.093-.23-.142-.344-.018-.04-.04-.077-.063-.115-.025-.041-.05-.082-.068-.127a.413.413 0 0 1-.037-.224c.008-.035.107-.068.166-.07.21-.005.42-.005.629-.006h.27c.248-.002.489-.048.723-.131.038-.013.077-.023.115-.033.039-.01.078-.02.115-.033a3.11 3.11 0 0 0 .157-.062c.046-.019.091-.038.137-.055l.174-.066c.153-.06.307-.119.465-.159.228-.057.638.12.783.312.045.059.087.12.129.18l.091.131c.296.41.685.6 1.192.52a.302.302 0 0 0 .235-.166c.041-.08.047-.159-.018-.224l-.03-.03c-.06-.063-.121-.127-.195-.164-.188-.095-.308-.246-.412-.422a4.093 4.093 0 0 0-.224-.332l-.024-.032c-.033-.046-.069-.09-.104-.135a2.484 2.484 0 0 1-.16-.217.586.586 0 0 1-.082-.245 2.612 2.612 0 0 1-.007-.422c.032-.544.67-.887 1.136-.716.39.143.665.402.87.756.084.144.18.283.29.409.15.175.308.18.49.04.228-.175.408-.146.574.09.314.448.688.84 1.128 1.16.575.416 1.222.485 1.903.36.354-.065.71-.12 1.065-.17.264-.036.52.019.756.136.151.075.283.075.437.005.14-.063.29-.106.44-.148l.09-.026a.327.327 0 0 1 .158 0c.234.054.467.108.698.171.134.036.26.044.392-.004.156-.056.313-.11.47-.162l.17-.058c.123-.042.201.008.194.14a.97.97 0 0 1-.058.274c-.13.36-.25.72-.263 1.11-.005.16-.02.326-.068.477a2.176 2.176 0 0 1-.243.526c-.124.19-.259.373-.393.556-.08.108-.159.215-.236.324a6.962 6.962 0 0 0-.296.454l-.01.018c-.158.264-.315.528-.527.754l-.015.016a.69.69 0 0 0-.064.074c-.084.12-.044.202.103.217a.256.256 0 0 0 .1-.004l.03-.01c.25-.079.502-.158.693-.352.169-.172.333-.349.489-.532.252-.299.568-.503.92-.654a.616.616 0 0 1 .193-.048c.15-.011.263-.097.364-.192a.328.328 0 0 0 .086-.192c.027-.258.09-.325.335-.405.741-.244 1.503-.266 2.27-.224.173.01.346.028.517.052.214.03.264.16.142.339a11.596 11.596 0 0 1-1.68 1.937 8.805 8.805 0 0 1-1.437 1.112l-.3.186c-.176.11-.352.221-.534.323a4.681 4.681 0 0 1-.432.206l-.162.071-.164.075a9.318 9.318 0 0 1-.509.221c-.241.095-.487.178-.735.253a11.133 11.133 0 0 1-2.603.433c-.142.01-.285.018-.427.03Z" fill="currentColor"/>
    </g>
    <defs>
        <clipPath id="a"><path d="M0 0h20v20H0z"/></clipPath>
    </defs>
</svg>
