<svg width="20" height="20" viewBox="0 0 20 20" fill="none" xmlns="http://www.w3.org/2000/svg">
    <path fill-rule="evenodd" clip-rule="evenodd" d="m14.774 5.828-.003.025-.059-.019-.116-.036-.072-.022-.263-.08a17.124 17.124 0 0 0-.592-.164 23.171 23.171 0 0 0-.323-.08l-.054-.014c-.092-.022-.183-.045-.275-.065l-.241-.05-.137-.026a6.66 6.66 0 0 0-.292-.06c-.112-.022-.225-.04-.338-.06l-.064-.01a22.144 22.144 0 0 0-.467-.065h-.003c-.09-.012-.18-.023-.271-.031a17.603 17.603 0 0 0-.654-.046 2.015 2.015 0 0 0-.08-.002l-.076-.001a15.077 15.077 0 0 1-.162-.008c-.101-.005-.202-.01-.303-.012C9.739 4.999 9.548 5 9.358 5h-.155c-.07 0-.139.002-.208.006l-.189.012-.08.005-.04.002-.087.007-.36.037-.054.006a4.607 4.607 0 0 0-.364.05l-.077.013-.052.008a4.212 4.212 0 0 0-.084.014l-.066.012c-.076.013-.152.027-.228.043-.058.012-.116.026-.174.04l-.077.02-.098.022a4.638 4.638 0 0 0-.22.055c-.145.04-.29.086-.433.132l-.068.022a8.892 8.892 0 0 0-1.042.396c-.176.076-.35.154-.521.24-.256.131-.509.267-.76.406-.338.186-.664.391-.982.61-.261.18-.515.37-.753.58-.16.14-.32.283-.47.434-.131.13-.253.269-.375.407l-.015.018c-.194.22-.366.456-.525.702-.152.236-.29.48-.406.738a3.715 3.715 0 0 0-.274.758c-.017.068-.03.139-.043.209l-.01.056a3.372 3.372 0 0 0-.03.189l-.007.05c-.01.083-.021.166-.026.248a3.651 3.651 0 0 0-.003.2L0 11.89c-.005.178.02.355.052.528a3.226 3.226 0 0 0 .363 1.005c.155.285.345.543.575.77.087.086.182.165.277.243a3.44 3.44 0 0 0 1.357.65c.108.024.218.043.328.056.143.016.287.03.43.034.118.003.238-.006.356-.018a2.557 2.557 0 0 0 .744-.16c.27-.096.514-.236.732-.422a2.2 2.2 0 0 0 .373-.408c.122-.172.217-.358.295-.554a2.213 2.213 0 0 0 .105-1.25 2.469 2.469 0 0 0-.207-.617 2.279 2.279 0 0 0-.415-.587 2.292 2.292 0 0 0-1.228-.644 2.024 2.024 0 0 0-1.174.137 1.61 1.61 0 0 0-.493.351 1.432 1.432 0 0 0-.361 1.363c.048.19.134.36.258.51a1.391 1.391 0 0 0 1.038.505c.107-.003.21-.02.313-.045.121-.029.24-.062.348-.127a.449.449 0 0 0 .208-.527.444.444 0 0 0-.542-.298l-.037.012a.807.807 0 0 1-.106.03l-.028.005c-.057.01-.115.022-.17.017a.404.404 0 0 1-.268-.145.46.46 0 0 1-.008-.595c.123-.157.297-.22.486-.242a1.25 1.25 0 0 1 .732.149c.144.08.264.19.363.323.113.151.2.314.251.497a1.293 1.293 0 0 1 .03.51 2.255 2.255 0 0 1-.06.24c-.054.17-.144.32-.265.45-.188.203-.429.312-.694.368a1.978 1.978 0 0 1-.536.037 3.233 3.233 0 0 0-.083-.004 2.092 2.092 0 0 1-1.717-1.032 2.28 2.28 0 0 1-.222-.505 2.339 2.339 0 0 1-.08-.396 1.973 1.973 0 0 1 .036-.678c.036-.16.093-.313.172-.458.156-.29.353-.546.61-.752a2.392 2.392 0 0 1 1.176-.479l.037-.003c.163-.018.327-.036.493-.017.055.007.11.011.165.016.086.007.172.014.257.027a3.268 3.268 0 0 1 .945.31 4.299 4.299 0 0 1 1.522 1.288c.183.246.34.507.474.783.126.26.23.529.311.806l.031.097.015.042c.132.012 1.39.006 1.439-.008l-.002-.015c0-.01-.002-.022-.005-.033a2.466 2.466 0 0 1-.06-.918c.019-.141.054-.279.108-.412.108-.263.278-.468.526-.606.125-.07.259-.113.399-.14.13-.026.261-.043.394-.041a4.168 4.168 0 0 1 .566.05c.07.013.138.032.207.05l.043.013c.11.03.214.072.315.124.295.151.53.373.717.645.167.241.295.504.42.768l.13.266.104.21c.018.039.044.053.086.052a8.92 8.92 0 0 1 .248-.002h1.152c.015 0 .03 0 .046-.002l.03-.002-.014-.025a.427.427 0 0 0-.02-.033 3.821 3.821 0 0 1-.4-.727 2.074 2.074 0 0 1-.172-.709 1.303 1.303 0 0 1 .074-.505.664.664 0 0 1 .173-.269.77.77 0 0 1 .457-.183c.124-.013.248-.02.373-.008.04.005.082.007.123.01.04.002.079.004.118.008l.154.018.137.015.193.019c.11.01.22.02.328.033.162.02.325.026.488.027a6.611 6.611 0 0 0 .85-.039 6.49 6.49 0 0 0 .393-.058c.132-.023.264-.046.394-.078.128-.03.255-.069.38-.11.12-.038.24-.08.355-.128.168-.07.335-.144.498-.223.128-.062.252-.13.364-.22a.384.384 0 0 0 .117-.147 2.71 2.71 0 0 0 .14-.44.213.213 0 0 0 .004-.068c-.003-.034-.026-.048-.057-.035a.598.598 0 0 0-.088.043 2.73 2.73 0 0 1-.37.183c-.13.052-.261.099-.393.143a2.646 2.646 0 0 1-.298.084 3.625 3.625 0 0 1-.25.04 1.46 1.46 0 0 1-.527.006 2.808 2.808 0 0 1-.343-.073 7.569 7.569 0 0 1-.46-.144 9.857 9.857 0 0 1-.714-.285c-.252-.11-.5-.229-.747-.35a.171.171 0 0 1-.089-.093 63.242 63.242 0 0 0-.19-.457l-.091-.22-.01-.03-.002-.01-.003-.01.02.007.024.011.073.049c.043.028.085.057.13.083l.092.055c.196.117.392.234.59.347a6.83 6.83 0 0 0 1.133.512 3.221 3.221 0 0 0 .493.131l.039.008c.058.013.117.025.177.028l.093.007c.092.007.185.014.28.006.14-.013.278-.03.413-.065.13-.033.256-.077.379-.132.248-.11.478-.251.694-.414.062-.047.077-.104.052-.177a.075.075 0 0 1-.002-.01l-.002-.007-.037-.127a8.412 8.412 0 0 0-.086-.288c-.057-.176-.118-.352-.179-.527l-.02-.057a4.969 4.969 0 0 0-.232-.564 1.323 1.323 0 0 0-.204-.327l-.087-.09v-.001a5.524 5.524 0 0 1-.053-.054.802.802 0 0 0-.188-.142 4.47 4.47 0 0 0-.64-.294c-.115-.043-.23-.084-.346-.123-.098-.033-.196-.062-.295-.092l-.04-.011a9.885 9.885 0 0 0-.28-.082 26.76 26.76 0 0 0-.418-.107c-.077-.02-.155-.037-.233-.055l-.018-.004-.138-.031-.086-.019-.098-.022-.189-.042c-.094-.02-.189-.038-.284-.057l-.02-.004h-.004a16.75 16.75 0 0 0-.503-.092l-.104-.017-.09-.016-.255-.043a.208.208 0 0 0-.042 0h-.021l-.003.021-.003.032-.005.281-.004.263a.562.562 0 0 1-.002.043Zm4.31 1.743c.001.672-.542 1.2-1.189 1.194-.648.014-1.211-.546-1.197-1.222a1.195 1.195 0 0 1 1.199-1.173 1.191 1.191 0 0 1 1.186 1.2Zm-.364-.007c.014.453-.372.832-.828.831a.84.84 0 0 1-.83-.835.837.837 0 0 1 .826-.837.83.83 0 0 1 .832.84Zm-.611.07a2.192 2.192 0 0 0-.05.008.486.486 0 0 1-.268-.08.234.234 0 0 1-.1-.138c-.018-.066.014-.12.056-.167a.249.249 0 0 1 .078-.059.496.496 0 0 1 .497.021c.027.017.05.043.07.069a.174.174 0 0 1-.006.213.316.316 0 0 1-.165.11c-.037.01-.074.016-.112.022Z" fill="currentColor"/>
</svg>
