<svg width="20" height="20" viewBox="0 0 20 20" fill="none" xmlns="http://www.w3.org/2000/svg">
    <g clip-path="url(#a)">
        <path fill-rule="evenodd" clip-rule="evenodd" d="M16.643 3.088a1.741 1.741 0 0 1-2.391.646 1.776 1.776 0 0 1-.64-2.413 1.742 1.742 0 0 1 2.39-.647 1.776 1.776 0 0 1 .641 2.414Zm-.881 6.454c-.23-2.637-2.421-4.705-5.094-4.705-.77 0-1.5.173-2.154.48l-1.216-2.2A7.54 7.54 0 0 1 12.7 2.6c.114.71.532 1.364 1.197 1.752a2.433 2.433 0 0 0 2.1.172 7.686 7.686 0 0 1 2.26 4.98l-2.496.037ZM5.554 10c0-1.747.86-3.29 2.175-4.224l-1.28-2.164a7.69 7.69 0 0 0-3.146 4.463c.553.455.907 1.148.907 1.925 0 .777-.354 1.47-.907 1.925a7.688 7.688 0 0 0 3.146 4.464l1.28-2.165A5.169 5.169 0 0 1 5.554 10ZM0 10c0-.976.784-1.767 1.75-1.767.968 0 1.752.79 1.752 1.767 0 .976-.784 1.768-1.751 1.768A1.759 1.759 0 0 1 0 10Zm13.611 8.68a1.776 1.776 0 0 1 .641-2.414 1.741 1.741 0 0 1 2.391.647 1.776 1.776 0 0 1-.64 2.413 1.741 1.741 0 0 1-2.392-.646Zm-2.942-3.517c-.77 0-1.5-.173-2.155-.48l-1.217 2.2a7.517 7.517 0 0 0 5.404.516 2.478 2.478 0 0 1 1.197-1.752 2.433 2.433 0 0 1 2.1-.172 7.686 7.686 0 0 0 2.26-4.98l-2.496-.037c-.23 2.637-2.421 4.705-5.093 4.705Z" fill="currentColor"/>
    </g>
    <defs>
        <clipPath id="a"><path d="M0 0h20v20H0z"/></clipPath>
    </defs>
</svg>
